<?xml version="1.0" standalone="no"?>
<!DOCTYPE svg PUBLIC "-//W3C//DTD SVG 20010904//EN"
 "http://www.w3.org/TR/2001/REC-SVG-20010904/DTD/svg10.dtd">
<svg version="1.0" xmlns="http://www.w3.org/2000/svg"
 width="192.000000pt" height="192.000000pt" viewBox="0 0 192.000000 192.000000"
 preserveAspectRatio="xMidYMid meet">
<metadata>
Created by potrace 1.11, written by Peter Selinger 2001-2013
</metadata>
<g transform="translate(0.000000,192.000000) scale(0.100000,-0.100000)"
fill="#000000" stroke="none">
<path d="M135 1913 c-36 -9 -97 -66 -116 -107 -18 -39 -19 -85 -19 -836 0
-517 4 -808 10 -832 14 -50 55 -97 105 -119 38 -18 85 -19 845 -19 760 0 807
1 845 19 50 22 91 69 105 119 14 51 14 1593 0 1644 -14 51 -56 97 -106 120
-40 17 -83 18 -846 17 -442 -1 -812 -4 -823 -6z"/>
</g>
</svg>
